<svg xmlns="http://www.w3.org/2000/svg" width="178" height="197" viewBox="0 0 178 197">
    <defs>
        <linearGradient id="qbewoof15a" x1="93.685%" x2="56.533%" y1="3.694%" y2="58.941%">
            <stop offset="0%" stop-color="#2B95D5"/>
            <stop offset="53.078%" stop-color="#4A8DF3"/>
            <stop offset="100%" stop-color="#4C6EF5"/>
        </linearGradient>
        <linearGradient id="h8vkhuea0b" x1="32.207%" x2="100%" y1="64.99%" y2="24.365%">
            <stop offset=".019%" stop-color="#4CE9F5"/>
            <stop offset="100%" stop-color="#4CF5CD"/>
        </linearGradient>
    </defs>
    <g fill="none" fill-rule="evenodd">
        <g fill-rule="nonzero">
            <g>
                <path fill="url(#qbewoof15a)" d="M148.982 19.447L119.054 97.05c-1.836 4.762-6.064 8.179-11.09 8.963-5.025.784-10.085-1.184-13.274-5.162L42.73 36.029c-3.176-3.979-4-9.355-2.165-14.11 1.837-4.754 6.055-8.166 11.072-8.955L133.508.171c5.024-.787 10.085 1.177 13.277 5.153 3.191 3.975 4.029 9.359 2.197 14.123z" transform="translate(-39.000000, -30.000000) translate(39.000000, 30.000000)"/>
                <path fill="url(#h8vkhuea0b)" d="M158.635 48.563l-13.462-2.464-20.52 53.225c-2.823 7.254-9.532 12.246-17.266 12.85-6.598.49-13.014-2.307-17.161-7.48L38.238 39.85c-3.198-3.985-4.762-9.044-4.374-14.146l-6.311-1.179c-8.21-1.503-16.596 1.505-21.998 7.891-5.402 6.387-7 15.181-4.193 23.071l44.82 125.954c2.808 7.887 9.592 13.67 17.799 15.176 8.207 1.505 16.59-1.498 21.994-7.879L172.238 86.81c5.403-6.384 7.002-15.177 4.197-23.066-2.806-7.89-9.592-13.677-17.8-15.181z" transform="translate(-39.000000, -30.000000) translate(39.000000, 30.000000)"/>
            </g>
        </g>
    </g>
</svg>
